#define _width 256
#define _height 56
static char _bits[] = {
 0x00,0x00,0x00,0x00,0x00,0x00,0x00,0x00,0x00,0x00,0x00,0x00,0x00,0x00,0x00,
 0x00,0x00,0x00,0x00,0x00,0x00,0x00,0x00,0x00,0x00,0x00,0x00,0x00,0x00,0x00,
 0x00,0x00,0x00,0x08,0x24,0x24,0x10,0x46,0x08,0x10,0x20,0x04,0x00,0x00,0x00,
 0x00,0x00,0x00,0x3c,0x18,0x3c,0x3c,0x10,0x7e,0x3c,0x7e,0x3c,0x3c,0x00,0x00,
 0x00,0x00,0x00,0x3c,0x00,0x08,0x24,0x7e,0x7c,0x26,0x14,0x10,0x10,0x08,0x28,
 0x10,0x00,0x00,0x00,0x40,0x62,0x14,0x42,0x42,0x18,0x02,0x02,0x40,0x42,0x42,
 0x00,0x08,0x20,0x00,0x08,0x42,0x00,0x08,0x00,0x24,0x14,0x10,0x08,0x00,0x10,
 0x08,0x10,0x10,0x00,0x00,0x00,0x20,0x52,0x10,0x40,0x30,0x14,0x3e,0x3e,0x20,
 0x3c,0x42,0x08,0x00,0x10,0x7c,0x10,0x20,0x00,0x08,0x00,0x24,0x7c,0x08,0x54,
 0x00,0x10,0x08,0x7c,0x7c,0x00,0x7c,0x00,0x10,0x4a,0x10,0x3c,0x40,0x12,0x40,
 0x42,0x10,0x42,0x7c,0x00,0x00,0x08,0x00,0x20,0x10,0x00,0x00,0x00,0x7e,0x50,
 0x64,0x22,0x00,0x10,0x08,0x10,0x10,0x10,0x00,0x18,0x08,0x46,0x10,0x02,0x42,
 0x7e,0x42,0x42,0x08,0x42,0x40,0x00,0x08,0x10,0x7c,0x10,0x00,0x00,0x08,0x00,
 0x24,0x7c,0x62,0x5c,0x00,0x20,0x04,0x28,0x10,0x10,0x00,0x18,0x04,0x3c,0x7c,
 0x7e,0x3c,0x10,0x3c,0x3c,0x08,0x3c,0x3c,0x08,0x08,0x20,0x00,0x08,0x10,0x00,
 0x00,0x00,0x00,0x10,0x00,0x00,0x00,0x00,0x00,0x00,0x00,0x08,0x00,0x00,0x00,
 0x00,0x00,0x00,0x00,0x00,0x00,0x00,0x00,0x00,0x00,0x00,0x04,0x00,0x00,0x00,
 0x00,0x00,0x00,0x00,0x00,0x00,0x00,0x00,0x00,0x00,0x00,0x00,0x00,0x00,0x00,
 0x00,0x00,0x00,0x00,0x00,0x00,0x00,0x00,0x00,0x00,0x00,0x00,0x00,0x00,0x00,
 0x00,0x00,0x00,0x3c,0x3c,0x3e,0x3c,0x1e,0x7e,0x7e,0x3c,0x42,0x7c,0x40,0x22,
 0x02,0x42,0x42,0x3c,0x3e,0x3c,0x3e,0x3c,0x7f,0x42,0x42,0x42,0x42,0x41,0x7e,
 0x70,0x00,0x0e,0x08,0x00,0x52,0x42,0x42,0x42,0x22,0x02,0x02,0x42,0x42,0x10,
 0x40,0x12,0x02,0x66,0x46,0x42,0x42,0x42,0x42,0x02,0x08,0x42,0x42,0x42,0x24,
 0x22,0x20,0x10,0x02,0x08,0x14,0x00,0x6a,0x42,0x3e,0x02,0x42,0x3e,0x3e,0x02,
 0x7e,0x10,0x40,0x0e,0x02,0x5a,0x4a,0x42,0x42,0x42,0x42,0x3c,0x08,0x42,0x42,
 0x42,0x18,0x14,0x10,0x10,0x04,0x08,0x22,0x00,0x7a,0x7e,0x42,0x02,0x42,0x02,
 0x02,0x72,0x42,0x10,0x42,0x12,0x02,0x42,0x52,0x42,0x3e,0x4a,0x3e,0x40,0x08,
 0x42,0x42,0x42,0x18,0x08,0x08,0x10,0x08,0x08,0x00,0x00,0x02,0x42,0x42,0x42,
 0x22,0x02,0x02,0x42,0x42,0x10,0x42,0x22,0x02,0x42,0x62,0x42,0x02,0x52,0x22,
 0x42,0x08,0x42,0x24,0x5a,0x24,0x08,0x04,0x10,0x10,0x08,0x00,0x00,0x3c,0x42,
 0x3e,0x3c,0x1e,0x7e,0x02,0x3c,0x42,0x7c,0x3c,0x42,0x7e,0x42,0x42,0x3c,0x02,
 0x3c,0x42,0x3c,0x08,0x3c,0x18,0x24,0x42,0x08,0x7e,0x70,0x20,0x0e,0x00,0x00,
 0x00,0x00,0x00,0x00,0x00,0x00,0x00,0x00,0x00,0x00,0x00,0x00,0x00,0x00,0x00,
 0x00,0x00,0x00,0x00,0x00,0x00,0x00,0x00,0x00,0x00,0x00,0x00,0x00,0x00,0x00,
 0x00,0xff,0x00,0x00,0x00,0x00,0x00,0x00,0x00,0x00,0x00,0x00,0x00,0x00,0x00,
 0x00,0x00,0x00,0x00,0x00,0x00,0x00,0x00,0x00,0x00,0x00,0x00,0x00,0x00,0x00,
 0x00,0x00,0x00,0x10,0x08,0x00,0x04,0x00,0x20,0x00,0x30,0x00,0x02,0x08,0x20,
 0x04,0x08,0x00,0x00,0x00,0x00,0x00,0x00,0x00,0x08,0x00,0x00,0x00,0x00,0x00,
 0x00,0x70,0x10,0x0e,0x28,0x38,0x10,0x1c,0x04,0x38,0x20,0x1c,0x08,0x3c,0x02,
 0x00,0x00,0x14,0x08,0x16,0x1e,0x1c,0x1e,0x3c,0x38,0x1c,0x1c,0x22,0x22,0x22,
 0x22,0x22,0x3e,0x10,0x10,0x08,0x14,0x54,0x00,0x20,0x3c,0x04,0x3c,0x22,0x18,
 0x22,0x1e,0x0c,0x20,0x0c,0x08,0x2a,0x22,0x22,0x22,0x22,0x04,0x02,0x08,0x22,
 0x22,0x2a,0x14,0x22,0x10,0x0c,0x10,0x30,0x00,0x10,0x00,0x3c,0x44,0x04,0x22,
 0x1e,0x08,0x22,0x22,0x08,0x20,0x0c,0x08,0x2a,0x22,0x22,0x22,0x22,0x04,0x1c,
 0x08,0x22,0x14,0x2a,0x08,0x22,0x08,0x10,0x10,0x08,0x00,0x10,0x00,0x22,0x44,
 0x04,0x22,0x02,0x08,0x3c,0x22,0x08,0x20,0x14,0x08,0x2a,0x22,0x22,0x1e,0x3c,
 0x04,0x20,0x08,0x22,0x14,0x2a,0x14,0x3c,0x04,0x10,0x10,0x08,0x00,0x10,0x00,
 0x3c,0x3c,0x38,0x3c,0x3c,0x08,0x20,0x22,0x1c,0x24,0x24,0x30,0x2a,0x22,0x1c,
 0x02,0x20,0x04,0x1e,0x30,0x1c,0x08,0x14,0x22,0x20,0x3e,0x70,0x10,0x0e,0x00,
 0x10,0x00,0x00,0x00,0x00,0x00,0x00,0x00,0x1c,0x00,0x00,0x18,0x00,0x00,0x00,
 0x00,0x00,0x02,0x60,0x00,0x00,0x00,0x00,0x00,0x00,0x00,0x1c,0x00,0x00,0x00,
 0x00,0x00,0x00,0x38,0x0f,0x00,0x00,0x00,0x00,0x00,0x00,0x00,0x00,0x28,0x00,
 0x00,0xf0,0x14,0x00,0x00,0x00,0x00,0x00,0x00,0x00,0x00,0x00,0x00,0x00,0x14,
 0x00,0x00,0x00,0x14,0x22,0x44,0x03,0x10,0x30,0x24,0x00,0x10,0x10,0x08,0x12,
 0x10,0x00,0x7c,0xc0,0x08,0x40,0x02,0x10,0x10,0x24,0x24,0x00,0x00,0x00,0x28,
 0x8f,0x08,0x00,0x00,0x10,0x08,0x00,0x1e,0x05,0x08,0x08,0x24,0x00,0x7c,0x7c,
 0x14,0x12,0x3c,0x00,0x12,0xa0,0x7e,0x20,0x04,0x08,0x08,0x24,0x24,0x18,0x00,
 0x00,0x14,0xda,0x1c,0x00,0x14,0x10,0x3e,0x41,0x04,0x09,0x00,0x18,0x00,0x00,
 0x10,0x10,0x22,0x08,0x02,0x10,0x32,0x90,0x20,0x10,0x08,0x00,0x00,0x00,0x00,
 0x3c,0x00,0x00,0x00,0xaa,0x02,0x10,0x2a,0x10,0x10,0x22,0x1e,0x10,0x00,0x08,
 0x00,0x54,0x10,0x10,0x00,0x04,0x3c,0x08,0x12,0x08,0x18,0x09,0x90,0x00,0x00,
 0x00,0x00,0x3c,0x7c,0x7c,0x00,0x8a,0x1c,0x20,0x1a,0x10,0x08,0x14,0x44,0x20,
 0x00,0x08,0x00,0x00,0x10,0x7c,0x00,0x52,0x40,0x10,0x12,0x04,0x04,0x05,0xa0,
 0x00,0x00,0x00,0x00,0x18,0x00,0x00,0x00,0x00,0x20,0x10,0x0a,0x54,0x04,0x08,
 0x38,0x40,0x00,0x08,0x00,0x00,0x10,0x10,0x00,0x52,0x3e,0x00,0x7c,0x02,0x7e,
 0x03,0xc0,0x00,0x00,0x00,0x00,0x00,0x00,0x00,0x00,0x00,0x1e,0x00,0x14,0x38,
 0x3e,0x08,0x00,0x00,0x00,0x06,0x00,0x00,0x00,0x00,0x00,0x00,0x00,0x00,0x00,
 0x00,0x00,0x0f,0xf0,0x00,0x00,0x00,0x00,0x00,0x00,0x00,0x00,0x00,0x00,0x00,
 0x00,0x10,0x00,0x00,0x00,0x00,0x00,0x00,0x00,0x00,0x00,0x18,0x00,0x3c,0x00,
 0x00,0x00,0x00,0x3c,0x00,0x00,0x00,0x0c,0x1c,0x10,0x00,0x00,0x00,0x00,0x08,
 0x00,0x00,0x02,0x02,0x03,0x00,0x00,0x08,0x00,0x38,0x22,0x41,0x10,0x04,0x24,
 0x42,0x38,0x00,0x00,0x00,0x42,0x00,0x18,0x10,0x10,0x22,0x08,0x00,0x3c,0x00,
 0x00,0x0c,0x18,0x00,0x03,0x03,0x04,0x08,0x00,0x00,0x1c,0x44,0x1c,0x22,0x10,
 0x18,0x00,0x99,0x3c,0x48,0x00,0x00,0x9d,0x3c,0x24,0x10,0x08,0x18,0x00,0x24,
 0x2a,0x00,0x00,0x08,0x24,0x12,0x42,0x32,0x42,0x00,0x00,0x08,0x02,0x1e,0x14,
 0x14,0x00,0x24,0x00,0x85,0x3c,0x24,0x3c,0x00,0xa5,0x00,0x24,0x7c,0x04,0x22,
 0x00,0x24,0x2a,0x18,0x00,0x08,0x24,0x24,0x62,0x42,0x64,0x08,0x00,0x08,0x02,
 0x04,0x1c,0x08,0x10,0x24,0x00,0x85,0x38,0x12,0x20,0x7c,0x9d,0x00,0x18,0x10,
 0x1c,0x1c,0x00,0x24,0x2c,0x18,0x00,0x1c,0x18,0x48,0x57,0x27,0x53,0x04,0x00,
 0x08,0x02,0x04,0x22,0x3e,0x10,0x18,0x00,0x99,0x00,0x24,0x00,0x00,0xa5,0x00,
 0x00,0x10,0x00,0x00,0x00,0x5c,0x28,0x00,0x20,0x00,0x00,0x24,0x70,0x10,0x70,
 0x42,0x00,0x08,0x1c,0x7e,0x00,0x08,0x10,0x20,0x00,0x42,0x00,0x48,0x00,0x00,
 0x42,0x00,0x00,0x00,0x00,0x00,0x00,0x04,0x28,0x00,0x30,0x00,0x00,0x12,0x40,
 0x70,0x40,0x3c,0x00,0x00,0x00,0x00,0x00,0x00,0x00,0x18,0x00,0x3c,0x00,0x00,
 0x00,0x00,0x3c,0x00,0x00,0x7c,0x00,0x00,0x00,0x04,0x00,0x00,0x00,0x00,0x00,
 0x00,0x00,0x00,0x00,0x00,0x08,0x10,0x08,0x28,0x24,0x18,0x00,0x00,0x08,0x10,
 0x08,0x24,0x08,0x20,0x10,0x24,0x00,0x28,0x08,0x10,0x08,0x28,0x24,0x00,0x00,
 0x08,0x10,0x08,0x24,0x10,0x02,0x00,0x10,0x08,0x14,0x14,0x00,0x00,0x7c,0x3c,
 0x10,0x08,0x14,0x00,0x10,0x10,0x28,0x00,0x1e,0x14,0x10,0x08,0x14,0x14,0x00,
 0x42,0x3c,0x10,0x08,0x14,0x00,0x08,0x1e,0x1c,0x3c,0x3c,0x3c,0x3c,0x3c,0x3c,
 0x12,0x42,0x7e,0x7e,0x7e,0x7e,0x7c,0x7c,0x7c,0x7c,0x22,0x46,0x3c,0x3c,0x3c,
 0x3c,0x3c,0x24,0x62,0x42,0x42,0x00,0x42,0x41,0x22,0x22,0x42,0x42,0x42,0x42,
 0x42,0x42,0x32,0x02,0x02,0x02,0x02,0x02,0x10,0x10,0x10,0x10,0x46,0x4a,0x42,
 0x42,0x42,0x42,0x42,0x18,0x52,0x42,0x42,0x42,0x42,0x22,0x22,0x1a,0x42,0x42,
 0x42,0x42,0x42,0x42,0x1e,0x02,0x3e,0x3e,0x3e,0x3e,0x10,0x10,0x10,0x10,0x42,
 0x52,0x42,0x42,0x42,0x42,0x42,0x18,0x4a,0x42,0x42,0x42,0x42,0x14,0x22,0x22,
 0x7e,0x7e,0x7e,0x7e,0x7e,0x7e,0x12,0x42,0x02,0x02,0x02,0x02,0x10,0x10,0x10,
 0x10,0x22,0x62,0x42,0x42,0x42,0x42,0x42,0x24,0x46,0x42,0x42,0x42,0x42,0x08,
 0x1e,0x2a,0x42,0x42,0x42,0x42,0x42,0x42,0x72,0x3c,0x7e,0x7e,0x7e,0x7e,0x7c,
 0x7c,0x7c,0x7c,0x1e,0x42,0x3c,0x3c,0x3c,0x3c,0x3c,0x42,0x3c,0x3c,0x3c,0x3c,
 0x3c,0x08,0x02,0x12,0x00,0x00,0x00,0x00,0x00,0x00,0x00,0x10,0x00,0x00,0x00,
 0x00,0x00,0x00,0x00,0x00,0x00,0x00,0x00,0x00,0x00,0x00,0x00,0x00,0x00,0x00,
 0x00,0x00,0x00,0x00,0x00,0x02,0x08,0x10,0x08,0x28,0x24,0x00,0x00,0x00,0x08,
 0x10,0x08,0x24,0x04,0x10,0x08,0x00,0x28,0x28,0x04,0x10,0x00,0x28,0x14,0x00,
 0x00,0x04,0x10,0x08,0x14,0x10,0x00,0x14,0x10,0x08,0x14,0x14,0x00,0x00,0x00,
 0x00,0x10,0x08,0x14,0x00,0x08,0x08,0x14,0x14,0x10,0x14,0x08,0x08,0x00,0x14,
 0x00,0x00,0x00,0x08,0x08,0x14,0x00,0x08,0x02,0x00,0x1c,0x1c,0x1c,0x1c,0x1c,
 0x1c,0x14,0x1c,0x1c,0x1c,0x1c,0x1c,0x00,0x00,0x00,0x00,0x28,0x00,0x1c,0x1c,
 0x1c,0x1c,0x1c,0x10,0x1c,0x22,0x22,0x00,0x22,0x22,0x1e,0x22,0x20,0x20,0x20,
 0x20,0x20,0x20,0x38,0x02,0x22,0x22,0x22,0x22,0x0c,0x0c,0x0c,0x0c,0x3c,0x1e,
 0x22,0x22,0x22,0x22,0x22,0x00,0x32,0x22,0x22,0x22,0x22,0x22,0x22,0x22,0x3c,
 0x3c,0x3c,0x3c,0x3c,0x3c,0x1c,0x02,0x1e,0x1e,0x1e,0x1e,0x08,0x08,0x08,0x08,
 0x22,0x22,0x22,0x22,0x22,0x22,0x22,0x7c,0x2a,0x22,0x22,0x22,0x22,0x22,0x22,
 0x22,0x22,0x22,0x22,0x22,0x22,0x22,0x0a,0x02,0x02,0x02,0x02,0x02,0x08,0x08,
 0x08,0x08,0x22,0x22,0x22,0x22,0x22,0x22,0x22,0x00,0x26,0x22,0x22,0x22,0x22,
 0x3c,0x1e,0x3c,0x3c,0x3c,0x3c,0x3c,0x3c,0x3c,0x34,0x1c,0x3c,0x3c,0x3c,0x3c,
 0x1c,0x1c,0x1c,0x1c,0x3c,0x22,0x1c,0x1c,0x1c,0x1c,0x1c,0x10,0x1c,0x1c,0x1c,
 0x1c,0x1c,0x20,0x02,0x20,0x00,0x00,0x00,0x00,0x00,0x00,0x00,0x08,0x00,0x00,
 0x00,0x00,0x00,0x00,0x00,0x00,0x00,0x00,0x00,0x00,0x00,0x00,0x00,0x00,0x00,
 0x00,0x00,0x00,0x00,0x1c,0x00,0x1c };
